<svg width="141" height="141" viewBox="0 0 141 141" fill="none" xmlns="http://www.w3.org/2000/svg">
<g filter="url(#filter0_n_813_1790)">
<path d="M92.8301 38.1699C92.8301 43.6928 97.3072 48.1699 102.83 48.1699H127C132.523 48.1699 137 52.6471 137 58.1699V82.3398C137 87.8627 132.523 92.3398 127 92.3398H102.83C97.3072 92.3398 92.8301 96.817 92.8301 102.34V127C92.8301 132.523 88.3529 137 82.8301 137H58.1699C52.6471 137 48.1699 132.523 48.1699 127V102.34C48.1699 96.817 43.6928 92.3398 38.1699 92.3398H14C8.47715 92.3398 4 87.8627 4 82.3398V58.1699C4 52.6471 8.47715 48.1699 14 48.1699H38.1699C43.6928 48.1699 48.1699 43.6928 48.1699 38.1699V14C48.1699 8.47715 52.6471 4 58.1699 4H82.8301C88.3529 4 92.8301 8.47715 92.8301 14V38.1699Z" fill="white"/>
<path d="M92.8301 38.1699C92.8301 43.6928 97.3072 48.1699 102.83 48.1699H127C132.523 48.1699 137 52.6471 137 58.1699V82.3398C137 87.8627 132.523 92.3398 127 92.3398H102.83C97.3072 92.3398 92.8301 96.817 92.8301 102.34V127C92.8301 132.523 88.3529 137 82.8301 137H58.1699C52.6471 137 48.1699 132.523 48.1699 127V102.34C48.1699 96.817 43.6928 92.3398 38.1699 92.3398H14C8.47715 92.3398 4 87.8627 4 82.3398V58.1699C4 52.6471 8.47715 48.1699 14 48.1699H38.1699C43.6928 48.1699 48.1699 43.6928 48.1699 38.1699V14C48.1699 8.47715 52.6471 4 58.1699 4H82.8301C88.3529 4 92.8301 8.47715 92.8301 14V38.1699Z" fill="url(#paint0_linear_813_1790)"/>
<path d="M102.83 48.1699V52.1699H127V48.1699V44.1699H102.83V48.1699ZM137 58.1699H133V82.3398H137H141V58.1699H137ZM127 92.3398V88.3398H102.83V92.3398V96.3398H127V92.3398ZM92.8301 102.34H88.8301V127H92.8301H96.8301V102.34H92.8301ZM82.8301 137V133H58.1699V137V141H82.8301V137ZM48.1699 127H52.1699V102.34H48.1699H44.1699V127H48.1699ZM38.1699 92.3398V88.3398H14V92.3398V96.3398H38.1699V92.3398ZM4 82.3398H8V58.1699H4H0V82.3398H4ZM14 48.1699V52.1699H38.1699V48.1699V44.1699H14V48.1699ZM48.1699 38.1699H52.1699V14H48.1699H44.1699V38.1699H48.1699ZM58.1699 4V8H82.8301V4V0H58.1699V4ZM92.8301 14H88.8301V38.1699H92.8301H96.8301V14H92.8301ZM82.8301 4V8C86.1438 8 88.8301 10.6863 88.8301 14H92.8301H96.8301C96.8301 6.26801 90.5621 0 82.8301 0V4ZM48.1699 14H52.1699C52.1699 10.6863 54.8562 8 58.1699 8V4V0C50.4379 0 44.1699 6.26801 44.1699 14H48.1699ZM38.1699 48.1699V52.1699C45.9019 52.1699 52.1699 45.9019 52.1699 38.1699H48.1699H44.1699C44.1699 41.4836 41.4836 44.1699 38.1699 44.1699V48.1699ZM4 58.1699H8C8 54.8562 10.6863 52.1699 14 52.1699V48.1699V44.1699C6.26801 44.1699 0 50.4379 0 58.1699H4ZM14 92.3398V88.3398C10.6863 88.3398 8 85.6535 8 82.3398H4H0C0 90.0718 6.26801 96.3398 14 96.3398V92.3398ZM48.1699 102.34H52.1699C52.1699 94.6079 45.9019 88.3398 38.1699 88.3398V92.3398V96.3398C41.4836 96.3398 44.1699 99.0261 44.1699 102.34H48.1699ZM58.1699 137V133C54.8562 133 52.1699 130.314 52.1699 127H48.1699H44.1699C44.1699 134.732 50.4379 141 58.1699 141V137ZM92.8301 127H88.8301C88.8301 130.314 86.1438 133 82.8301 133V137V141C90.5621 141 96.8301 134.732 96.8301 127H92.8301ZM102.83 92.3398V88.3398C95.0981 88.3398 88.8301 94.6079 88.8301 102.34H92.8301H96.8301C96.8301 99.0261 99.5164 96.3398 102.83 96.3398V92.3398ZM137 82.3398H133C133 85.6535 130.314 88.3398 127 88.3398V92.3398V96.3398C134.732 96.3398 141 90.0718 141 82.3398H137ZM127 48.1699V52.1699C130.314 52.1699 133 54.8562 133 58.1699H137H141C141 50.4379 134.732 44.1699 127 44.1699V48.1699ZM102.83 48.1699V44.1699C99.5164 44.1699 96.8301 41.4836 96.8301 38.1699H92.8301H88.8301C88.8301 45.9019 95.0981 52.1699 102.83 52.1699V48.1699Z" fill="url(#paint1_linear_813_1790)" fill-opacity="0.1"/>
</g>
<defs>
<filter id="filter0_n_813_1790" x="0" y="0" width="141" height="141" filterUnits="userSpaceOnUse" color-interpolation-filters="sRGB">
<feFlood flood-opacity="0" result="BackgroundImageFix"/>
<feBlend mode="normal" in="SourceGraphic" in2="BackgroundImageFix" result="shape"/>
<feTurbulence type="fractalNoise" baseFrequency="2 2" stitchTiles="stitch" numOctaves="3" result="noise" seed="3455" />
<feColorMatrix in="noise" type="luminanceToAlpha" result="alphaNoise" />
<feComponentTransfer in="alphaNoise" result="coloredNoise1">
<feFuncA type="discrete" tableValues="1 1 1 1 1 1 1 1 1 1 1 1 1 1 1 1 1 1 1 1 1 1 1 1 1 1 1 1 1 1 1 1 1 1 1 1 1 1 1 1 1 1 1 1 1 1 1 1 1 1 1 0 0 0 0 0 0 0 0 0 0 0 0 0 0 0 0 0 0 0 0 0 0 0 0 0 0 0 0 0 0 0 0 0 0 0 0 0 0 0 0 0 0 0 0 0 0 0 0 0 "/>
</feComponentTransfer>
<feComposite operator="in" in2="shape" in="coloredNoise1" result="noise1Clipped" />
<feFlood flood-color="rgba(0, 0, 0, 0.1)" result="color1Flood" />
<feComposite operator="in" in2="noise1Clipped" in="color1Flood" result="color1" />
<feMerge result="effect1_noise_813_1790">
<feMergeNode in="shape" />
<feMergeNode in="color1" />
</feMerge>
</filter>
<linearGradient id="paint0_linear_813_1790" x1="70.5" y1="4" x2="70.5" y2="137" gradientUnits="userSpaceOnUse">
<stop stop-color="white"/>
<stop offset="0.1669" stop-color="#F6F6F6"/>
<stop offset="1" stop-color="#CACACA"/>
</linearGradient>
<linearGradient id="paint1_linear_813_1790" x1="70.5" y1="4" x2="70.5" y2="137" gradientUnits="userSpaceOnUse">
<stop/>
<stop offset="1" stop-color="#666666"/>
</linearGradient>
</defs>
</svg>
